<?xml version="1.0" encoding="utf-8"?>
<svg width="102" height="61" viewBox="0 0 102.822 51.508" fill="none" xmlns="http://www.w3.org/2000/svg">
  <path fill-rule="evenodd" clip-rule="evenodd" d="M36.053 26.1274C36.0087 26.1034 35.9601 26.0739 35.9081 26.04L36.053 26.1274ZM35.3553 25.6254C34.8066 25.1786 34.1692 24.5877 33.8451 24.2974C32.3802 22.8976 30.8532 21.7786 28.9169 20.8505C23.0675 18.0467 16.4237 19.1279 10.6592 21.7326C8.9853 22.4888 4.41166 24.9707 3.64282 25.901C4.1391 25.7108 4.83777 25.2105 5.36366 24.9272C5.97243 24.5994 6.47665 24.3394 7.14083 24.0089C8.30181 23.4312 9.63591 22.9257 11.0064 22.4811C17.1484 20.489 23.3099 20.917 28.8431 24.0744C30.77 25.1739 31.8895 26.1382 33.4691 27.5119C37.9984 31.4512 45.0846 33.3869 52.4708 32.8628C55.7248 32.632 58.8412 32.0305 61.7815 31.2044C63.4713 30.7297 66.1761 29.8267 67.8045 29.1329C68.253 28.9417 69.3691 28.361 69.6696 28.2938C69.1309 28.3483 67.3277 29.0374 66.5855 29.258C65.5227 29.5739 64.4098 29.8668 63.2887 30.1225C60.9199 30.6627 58.4865 31.0536 55.957 31.2423C52.1844 31.5233 48.1162 31.3071 44.4992 30.314C43.4056 30.0136 42.5253 29.652 41.5449 29.32L39.7029 10.7332H42.0219V9.34227H38.5051V4.19732H40.1723L37.5947 2.09864L35.0171 0L32.4395 2.09864L29.862 4.19732H31.5493V9.34227H28.0535V10.7332H30.341L30.295 10.7372L30.3191 17.7215L31.3345 10.7332H35.3365L35.3553 25.6254ZM37.1731 9.34227V4.19732H35.0171H32.8814V9.34227H37.1731Z" fill="#20B4D9"/>
  <path fill-rule="evenodd" clip-rule="evenodd" d="M15.9375 23.8491C19.7226 23.9578 22.4794 24.6172 25.2217 26.1148C26.6125 26.8742 27.4529 27.5494 28.5432 28.4045C32.0224 31.1333 35.2158 32.9328 40.0765 34.0199C44.0352 34.9053 46.9022 34.7939 51 34.5691C50.2646 34.4763 47.527 34.5769 45.538 34.3671C40.6813 33.8551 36.4861 32.2938 32.7434 29.7823C30.1336 28.0312 29.337 26.7249 25.8899 25.1915C23.1943 23.9925 19.6875 23.3765 16.6094 23.6694C16.4199 23.6873 16.1007 23.7524 15.9375 23.8491Z" fill="#20B4D9"/>
  <path d="M4.49478 42.5641C4.30015 43.2549 4.15849 44.0667 4.01696 44.8095C3.87541 44.0667 3.71615 43.2894 3.55689 42.5641L1.92883 36.83H0V48.9198H1.50409V42.4087C1.50409 41.7523 1.50409 41.0614 1.48648 40.4224L1.57487 41.0097L3.34454 47.3137H4.6895L6.45906 41.0097L6.52982 40.4052V48.9198H8.034V36.83H6.10506L4.49478 42.5641ZM12.9004 45.8802H15.2186L16.068 48.9198H17.6076L14.2099 36.83H12.8827L9.48504 48.9198H11.0246L13.3074 40.7161C13.4844 40.0597 13.4667 39.3862 13.5374 38.7126C13.6259 39.3862 13.6082 40.0597 13.7852 40.7161L14.8116 44.4812H12.281L12.9004 45.8802ZM24.8806 36.83H22.0492C19.9788 36.83 18.8639 38.2462 18.8639 39.9388V41.4933C18.8639 42.685 19.3948 43.7212 20.4743 44.2394L18.6693 48.9198H20.2796L21.9961 44.5848H23.3764L22.757 43.1858H22.0492C20.952 43.1858 20.3681 42.4087 20.3681 41.4933V39.9388C20.3681 39.0234 20.952 38.229 22.0492 38.229H24.8806V36.83ZM23.3764 48.9198H24.8806V38.229L23.3764 38.799V48.9198ZM29.11 43.5831L32.3307 48.9198H34.0118L30.2779 42.7195L33.8348 36.83H32.1714L28.933 42.1669H28.6145V36.83H27.1103V48.9198H28.6145V42.4777L29.11 43.5831ZM38.2412 47.5209V48.9198H41.0902C43.2315 48.9198 44.4171 47.642 44.4171 46.1394V45.0858C44.4171 44.1703 43.8863 43.3412 43.0368 42.8577C43.8331 42.3568 44.2401 41.5451 44.2401 40.6643V39.6107C44.2401 38.1081 43.1252 36.83 41.0548 36.83H38.2057V38.229H41.0548C42.152 38.229 42.7359 38.868 42.7359 39.6107V40.6643C42.7359 41.4933 42.152 42.1669 41.0548 42.1669H38.5597L39.1614 43.5831H41.0902C42.2405 43.5831 42.9129 44.2566 42.9129 45.0858V46.1394C42.9129 46.8817 42.2405 47.5209 41.0902 47.5209H38.2412ZM47.6732 38.799C47.3722 45.3446 46.9828 47.5209 45.5143 47.5209V51.5105H46.9123V48.9198H52.097V51.5105H53.5304V47.5209H47.9564C48.7528 46.0183 49.0356 43.0476 49.1772 38.229H51.1771V47.5209L52.6812 46.9508V36.83H47.7264L47.6732 38.229H49.1772L47.6732 38.799ZM61.5825 39.9215V39.697C61.5825 37.8145 60.2551 36.7437 58.4146 36.7437H57.8836C55.8309 36.7437 54.7162 37.9526 54.7162 40.077V45.6729C54.7162 47.7972 55.8309 49.0064 57.8836 49.0064H58.4146C60.4851 49.0064 61.5825 47.7972 61.5825 45.6729V39.9906L60.078 40.5779V45.6729C60.078 46.9683 59.4765 47.5899 58.3968 47.5899H57.9014C56.8222 47.5899 56.2202 46.9683 56.2202 45.6729V40.077C56.2202 38.7816 56.8222 38.1598 57.9014 38.1598H58.3968C59.4232 38.1598 60.0252 38.7299 60.078 39.9215H61.5825ZM65.1744 48.9198V43.1858L65.7941 44.5848H66.5017C68.5722 44.5848 69.6869 43.1686 69.6869 41.4933V39.9388C69.6869 38.2462 68.5722 36.83 66.5017 36.83H63.6525V48.9198H65.1744ZM65.1744 43.1858V38.229H66.5017C67.5987 38.229 68.1829 39.0234 68.1829 39.9388V41.4933C68.1829 42.4087 67.5987 43.1858 66.5017 43.1858H65.1744ZM78.1279 39.9215V39.697C78.1279 37.8145 76.801 36.7437 74.9604 36.7437H74.4295C72.3767 36.7437 71.262 37.9526 71.262 40.077V45.6729C71.262 47.7972 72.3767 49.0064 74.4295 49.0064H74.9604C77.0309 49.0064 78.1279 47.7972 78.1279 45.6729V39.9906L76.6239 40.5779V45.6729C76.6239 46.9683 76.0223 47.5899 74.9427 47.5899H74.4473C73.3676 47.5899 72.7661 46.9683 72.7661 45.6729V40.077C72.7661 38.7816 73.3676 38.1598 74.4473 38.1598H74.9427C75.9691 38.1598 76.5706 38.7299 76.6239 39.9215H78.1279ZM80.1984 48.9198H83.207C85.2597 48.9198 86.3922 47.5729 86.3922 45.9838V45.0858C86.3922 44.1875 85.6663 43.3241 84.6049 42.8231C85.6841 42.3395 86.215 41.5623 86.215 40.6643V39.7661C86.215 38.1772 85.1003 36.83 83.0298 36.83H80.1984V48.9198ZM81.7025 42.1669L82.3217 43.5831H83.0298C84.2333 43.5831 84.8704 44.2566 84.8704 45.0858V45.9838C84.8704 46.8126 84.2862 47.5209 83.207 47.5209H81.7025V42.1669ZM81.7025 42.1669V38.229H83.0298C84.1268 38.229 84.711 38.9371 84.711 39.7661V40.6643C84.711 41.4933 84.0562 42.1669 82.8704 42.1669H81.7025ZM89.9312 36.83H88.4094V48.9198H91.2586C93.3291 48.9198 94.4438 47.5038 94.4438 45.8111V44.2566C94.4438 42.5813 93.3291 41.1651 91.2586 41.1651H89.9312V36.83ZM90.5505 42.5641H91.2586C92.3555 42.5641 92.9398 43.3413 92.9398 44.2566V45.8111C92.9398 46.7265 92.3555 47.5209 91.2586 47.5209H89.9312V41.1651L90.5505 42.5641ZM102 36.83H99.1686C97.0981 36.83 95.9834 38.2462 95.9834 39.9388V41.4933C95.9834 42.685 96.5143 43.7212 97.5935 44.2394L95.7889 48.9198H97.3991L99.1153 44.5848H100.496L99.8762 43.1858H99.1686C98.0716 43.1858 97.4874 42.4087 97.4874 41.4933V39.9388C97.4874 39.0234 98.0716 38.229 99.1686 38.229H102V36.83ZM100.496 48.9198H102V38.229L100.496 38.799V48.9198Z" fill="#20B4D9"/>
</svg>